<?xml version="1.0" ?><svg data-name="Layer 1" id="Layer_1" viewBox="0 0 32 32" xmlns="http://www.w3.org/2000/svg" xmlns:xlink="http://www.w3.org/1999/xlink"><defs><style>.cls-1{fill:url(#linear-gradient);}.cls-2{fill:url(#linear-gradient-2);}.cls-3{fill:#1282ff;}</style><linearGradient gradientUnits="userSpaceOnUse" id="linear-gradient" x1="16" x2="16" y1="10" y2="30"><stop offset="0.24" stop-color="#cdeaff"/><stop offset="0.34" stop-color="#c2e4ff"/><stop offset="0.5" stop-color="#a5d5ff"/><stop offset="0.72" stop-color="#76bcff"/><stop offset="0.98" stop-color="#369aff"/><stop offset="1" stop-color="#3197ff"/></linearGradient><linearGradient gradientUnits="userSpaceOnUse" id="linear-gradient-2" x1="9.8" x2="9.8" y1="29" y2="15"><stop offset="0.36" stop-color="#e2edff"/><stop offset="1" stop-color="#85c7ff"/></linearGradient></defs><title/><rect class="cls-1" height="20" width="28" x="2" y="10"/><path class="cls-2" d="M11.26,23A6.47,6.47,0,0,0,13,18.5a3.5,3.5,0,0,0-7,0A6.47,6.47,0,0,0,7.74,23c-2.8.1-5.19,3.76-5.74,6H17.59C17,26.78,16.69,23.31,11.26,23Z"/><path class="cls-3" d="M31,31H1V9H31ZM3,29H29V11H3Z"/><rect class="cls-3" height="2" width="9" x="18" y="21"/><rect class="cls-3" height="2" width="6" x="18" y="17"/><path class="cls-3" d="M13.07,22.28A8.14,8.14,0,0,0,14,18.5a4.5,4.5,0,0,0-9,0,8.14,8.14,0,0,0,.93,3.78A6.54,6.54,0,0,0,1,26.76L3,27.24c.42-1.7,2.28-3,4.44-3.2a3.43,3.43,0,0,0,4.18,0c2.19.2,4,1.48,4.44,3.2L18,26.76A6.54,6.54,0,0,0,13.07,22.28ZM9.5,15.78a2.67,2.67,0,0,1,2.67,2.67C12.17,20.54,11,23,9.5,23s-2.67-2.44-2.67-4.53A2.67,2.67,0,0,1,9.5,15.78Z"/><rect class="cls-3" height="2" transform="translate(4.71 19) rotate(-60.96)" width="10.3" x="13.35" y="4.5"/><rect class="cls-3" height="10.3" transform="translate(-0.97 7.25) rotate(-29.05)" width="2" x="12.5" y="0.35"/></svg>